<svg width="36" height="40" viewBox="0 0 36 40" fill="none" xmlns="http://www.w3.org/2000/svg">
<g clip-path="url(#clip0_1442_344)">
<path d="M35.6377 22.0675V28.0071C35.6377 28.0755 35.6363 28.144 35.6323 28.2124C35.631 28.2259 35.631 28.2406 35.6296 28.254C35.6269 28.2943 35.6243 28.3346 35.6202 28.3762C35.6162 28.4165 35.6122 28.4567 35.6068 28.497C35.6028 28.5359 35.5961 28.5748 35.5907 28.6124C35.5813 28.6702 35.5719 28.7265 35.5598 28.7842C35.5531 28.8205 35.5451 28.8554 35.537 28.8916C35.529 28.9225 35.5209 28.9547 35.5128 28.9869C35.5061 29.0165 35.4981 29.0446 35.4887 29.0742C35.4524 29.2044 35.4081 29.3332 35.3571 29.4594C35.3464 29.4863 35.3357 29.5144 35.3236 29.5413C35.2927 29.6151 35.2592 29.6876 35.2229 29.7587C35.2055 29.795 35.1867 29.8299 35.1679 29.8648L35.1665 29.8634L28.4471 26.1238L17.9236 20.2661L25.8377 16.6232L35.4954 21.9896L35.6377 22.0675Z" fill="url(#paint0_linear_1442_344)"/>
<path d="M35.5196 10.9829L33.4713 12.5615L31.6579 15.4125L14.4163 5.81515L20.9679 1.21381L24.9277 3.50105H24.929L32.1854 7.69032L33.6874 8.55743C34.6122 9.09166 35.2646 9.97219 35.5196 10.9829Z" fill="url(#paint1_linear_1442_344)"/>
<path d="M24.9275 3.50101L0 17.7815V11.9373C0 10.5426 0.743624 9.25403 1.95034 8.55738L15.8685 0.522483C17.0752 -0.174161 18.5624 -0.174161 19.7705 0.522483L24.9275 3.50101Z" fill="#141B22"/>
<path d="M35.6376 11.9373V13.9655L3.43758 32.246L1.95034 31.387C0.743624 30.689 0 29.4017 0 28.0071V25.9829L32.1852 7.69031L33.6872 8.55742C34.894 9.25407 35.6376 10.5427 35.6376 11.9373Z" fill="#141B22"/>
<path d="M35.6376 21.9064V28.007C35.6376 28.0755 35.6363 28.144 35.6323 28.2124C35.6309 28.2258 35.6309 28.2406 35.6296 28.254C35.6269 28.2943 35.6242 28.3346 35.6202 28.3762C35.6161 28.4164 35.6121 28.4567 35.6068 28.497C35.6027 28.5359 35.596 28.5748 35.5906 28.6124C35.5812 28.6701 35.5719 28.7265 35.5598 28.7842C35.5531 28.8205 35.545 28.8554 35.537 28.8916C35.5289 28.9225 35.5208 28.9547 35.5128 28.9869C35.5061 29.0164 35.498 29.0446 35.4886 29.0742C35.4524 29.2044 35.4081 29.3332 35.3571 29.4594C35.3463 29.4862 35.3356 29.5144 35.3235 29.5413C35.2927 29.6151 35.2591 29.6876 35.2229 29.7587C35.2054 29.795 35.1866 29.8299 35.1678 29.8648C35.1463 29.9037 35.1249 29.9426 35.1021 29.9802C35.0806 30.0191 35.0564 30.0567 35.0336 30.0943C34.9853 30.1681 34.9356 30.2419 34.8833 30.3131C34.8296 30.3856 34.7745 30.4554 34.7182 30.5225C34.6886 30.5574 34.6591 30.5909 34.6296 30.6232C34.6 30.6567 34.5692 30.6889 34.5383 30.7211C34.4765 30.7856 34.4121 30.8487 34.345 30.9077C34.3195 30.9319 34.2927 30.9547 34.2658 30.9775C34.2497 30.9909 34.2336 31.0044 34.2175 31.0178C34.1853 31.046 34.1517 31.0728 34.1168 31.0983C34.0833 31.1252 34.0497 31.1507 34.0135 31.1748C33.9463 31.2245 33.8766 31.2715 33.8054 31.3158C33.7665 31.3399 33.7276 31.3641 33.6873 31.3869L19.7705 39.4218C18.5625 40.1185 17.0752 40.1185 15.8685 39.4218L10.7786 36.4836L28.447 26.1238L35.4953 21.9896L35.6376 21.9064Z" fill="#141B22"/>
<path d="M6.99866 5.64331V34.301L3.43758 32.246L1.95034 31.3869C0.743624 30.6889 0 29.4017 0 28.0071V11.9373C0 10.5426 0.743624 9.25405 1.95034 8.5574L6.99866 5.64331Z" fill="#141B22"/>
</g>
<defs>
<linearGradient id="paint0_linear_1442_344" x1="34.5638" y1="26.4433" x2="20.2685" y2="16.6446" gradientUnits="userSpaceOnUse">
<stop stop-color="#152024"/>
<stop offset="1" stop-color="#151D22" stop-opacity="0"/>
</linearGradient>
<linearGradient id="paint1_linear_1442_344" x1="32.2149" y1="12.8863" x2="19.2619" y2="4.49702" gradientUnits="userSpaceOnUse">
<stop stop-color="#151F23"/>
<stop offset="1" stop-color="#151F23" stop-opacity="0"/>
</linearGradient>
<clipPath id="clip0_1442_344">
<rect width="36" height="40" fill="white"/>
</clipPath>
</defs>
</svg>
