<svg width="36" height="40" viewBox="0 0 36 40" fill="none" xmlns="http://www.w3.org/2000/svg">
<g clip-path="url(#clip0_1442_512)">
<path d="M35.6377 22.0673V28.0069C35.6377 28.0754 35.6363 28.1439 35.6323 28.2123C35.631 28.2257 35.631 28.2405 35.6296 28.2539C35.6269 28.2942 35.6243 28.3345 35.6202 28.3761C35.6162 28.4163 35.6122 28.4566 35.6068 28.4969C35.6028 28.5358 35.5961 28.5747 35.5907 28.6123C35.5813 28.67 35.5719 28.7264 35.5598 28.7841C35.5531 28.8204 35.5451 28.8553 35.537 28.8915C35.529 28.9224 35.5209 28.9546 35.5128 28.9868C35.5061 29.0163 35.4981 29.0445 35.4887 29.0741C35.4524 29.2043 35.4081 29.3331 35.3571 29.4593C35.3464 29.4861 35.3357 29.5143 35.3236 29.5412C35.2927 29.615 35.2592 29.6875 35.2229 29.7586C35.2055 29.7949 35.1867 29.8298 35.1679 29.8647L35.1665 29.8633L28.4471 26.1237L17.9236 20.266L25.8377 16.623L35.4954 21.9895L35.6377 22.0673Z" fill="url(#paint0_linear_1442_512)"/>
<path d="M35.5196 10.983L33.4713 12.5615L31.6579 15.4125L14.4163 5.81521L20.9679 1.21387L24.9277 3.50112H24.929L32.1854 7.69038L33.6874 8.55749C34.6122 9.09172 35.2646 9.97226 35.5196 10.983Z" fill="url(#paint1_linear_1442_512)"/>
<path d="M24.9275 3.50101L0 17.7815V11.9373C0 10.5426 0.743624 9.25403 1.95034 8.55738L15.8685 0.522483C17.0752 -0.174161 18.5624 -0.174161 19.7705 0.522483L24.9275 3.50101Z" fill="#5BFF6D"/>
<path d="M35.6376 11.9374V13.9656L3.43758 32.2461L1.95034 31.3871C0.743624 30.6891 0 29.4018 0 28.0072V25.983L32.1852 7.69043L33.6872 8.55754C34.894 9.25419 35.6376 10.5428 35.6376 11.9374Z" fill="#5BFF6D"/>
<path d="M35.6376 21.9062V28.0069C35.6376 28.0754 35.6363 28.1438 35.6323 28.2123C35.6309 28.2257 35.6309 28.2405 35.6296 28.2539C35.6269 28.2942 35.6242 28.3344 35.6202 28.376C35.6161 28.4163 35.6121 28.4566 35.6068 28.4969C35.6027 28.5358 35.596 28.5747 35.5906 28.6123C35.5812 28.67 35.5719 28.7264 35.5598 28.7841C35.5531 28.8203 35.545 28.8552 35.537 28.8915C35.5289 28.9224 35.5208 28.9546 35.5128 28.9868C35.5061 29.0163 35.498 29.0445 35.4886 29.074C35.4524 29.2042 35.4081 29.3331 35.3571 29.4593C35.3463 29.4861 35.3356 29.5143 35.3235 29.5411C35.2927 29.615 35.2591 29.6875 35.2229 29.7586C35.2054 29.7948 35.1866 29.8297 35.1678 29.8646C35.1463 29.9036 35.1249 29.9425 35.1021 29.9801C35.0806 30.019 35.0564 30.0566 35.0336 30.0942C34.9853 30.168 34.9356 30.2418 34.8833 30.313C34.8296 30.3854 34.7745 30.4552 34.7182 30.5224C34.6886 30.5573 34.6591 30.5908 34.6296 30.623C34.6 30.6566 34.5692 30.6888 34.5383 30.721C34.4765 30.7854 34.4121 30.8485 34.345 30.9076C34.3195 30.9318 34.2927 30.9546 34.2658 30.9774C34.2497 30.9908 34.2336 31.0042 34.2175 31.0177C34.1853 31.0458 34.1517 31.0727 34.1168 31.0982C34.0833 31.125 34.0497 31.1505 34.0135 31.1747C33.9463 31.2244 33.8766 31.2714 33.8054 31.3156C33.7665 31.3398 33.7276 31.364 33.6873 31.3868L19.7705 39.4217C18.5625 40.1183 17.0752 40.1183 15.8685 39.4217L10.7786 36.4834L28.447 26.1237L35.4953 21.9895L35.6376 21.9062Z" fill="#5BFF6D"/>
<path d="M6.99866 5.64307V34.3008L3.43758 32.2458L1.95034 31.3867C0.743624 30.6887 0 29.4015 0 28.0068V11.937C0 10.5424 0.743624 9.2538 1.95034 8.55716L6.99866 5.64307Z" fill="#5BFF6D"/>
</g>
<defs>
<linearGradient id="paint0_linear_1442_512" x1="34.5638" y1="26.4432" x2="20.2685" y2="16.6445" gradientUnits="userSpaceOnUse">
<stop stop-color="#00FFA3"/>
<stop offset="1" stop-color="#00FFA3" stop-opacity="0"/>
</linearGradient>
<linearGradient id="paint1_linear_1442_512" x1="32.2149" y1="12.8863" x2="19.2619" y2="4.49708" gradientUnits="userSpaceOnUse">
<stop stop-color="#00FFA3"/>
<stop offset="1" stop-color="#00FFA3" stop-opacity="0"/>
</linearGradient>
<clipPath id="clip0_1442_512">
<rect width="36" height="40" fill="white"/>
</clipPath>
</defs>
</svg>
